# xmcd
#
# Track frame offsets: 
#        187
#        19202
#        41725
#        61115
#        79900
#        104645
#        124357
#
# Disc length: 2007 seconds
#
# Revision: 4
# Processed by: cddbd v1.5.2PL0 Copyright (c) Steve Scherf et al.
# Submitted via: ExactAudioCopy v0.95b4
#
DISCID=5e07d507
DTITLE=B.B.King - Midnight believer
DYEAR=1900
DGENRE=Blues
TTITLE0=When it all comes down (I'll still be around)
TTITLE1=Midnight believer
TTITLE2=I just can't leave your love alone
TTITLE3=Hold on (I feel our love is changing)
TTITLE4=Never make a move too soon
TTITLE5=A world full of strangers
TTITLE6=Let me make you cry a little longer
EXTD=
EXTT0=
EXTT1=
EXTT2=
EXTT3=
EXTT4=
EXTT5=
EXTT6=
PLAYORDER=
